{
	"asset":{
		"generator":"Khronos glTF Blender I/O v3.5.30",
		"version":"2.0"
	},
	"scene":0,
	"scenes":[
		{
			"name":"Scene",
			"nodes":[
				6
			]
		}
	],
	"nodes":[
		{
			"mesh":0,
			"name":"Delorean_Material_0",
			"translation":[
				-6.77370548248291,
				-16.899463653564453,
				-2.330681324005127
			]
		},
		{
			"children":[
				0
			],
			"name":"Delorean",
			"rotation":[
				-0.70710688829422,
				0,
				0,
				0.7071066498756409
			],
			"scale":[
				100,
				100,
				100
			],
			"translation":[
				0,
				7.629375886608614e-06,
				0
			]
		},
		{
			"name":"Shock",
			"rotation":[
				-0.70710688829422,
				0,
				0,
				0.7071066498756409
			],
			"scale":[
				100,
				100,
				100
			],
			"translation":[
				0,
				10.117286682128906,
				62.4344482421875
			]
		},
		{
			"name":"Stars",
			"rotation":[
				-0.70710688829422,
				0,
				0,
				0.7071066498756409
			],
			"scale":[
				100,
				100,
				100
			],
			"translation":[
				0,
				67.19007873535156,
				0
			]
		},
		{
			"children":[
				1,
				2,
				3
			],
			"name":"RootNode",
			"translation":[
				0,
				7.629375886608614e-06,
				0
			]
		},
		{
			"children":[
				4
			],
			"name":"f5c2c6925341403fb5dfa71003d79cd1.fbx",
			"rotation":[
				0.70710688829422,
				0,
				0,
				0.7071066498756409
			],
			"translation":[
				0,
				-1.350670754618477e-05,
				5.7813304010778666e-06
			]
		},
		{
			"children":[
				5
			],
			"name":"Sketchfab_model",
			"rotation":[
				-0.70710688829422,
				0,
				0,
				0.7071066498756409
			],
			"scale":[
				0.002426200546324253,
				0.0024262007791548967,
				0.0024262007791548967
			],
			"translation":[
				1.6171947717666626,
				0.24389898777008057,
				-3.961920738220215
			]
		}
	],
	"materials":[
		{
			"alphaMode":"BLEND",
			"doubleSided":true,
			"emissiveFactor":[
				1,
				1,
				1
			],
			"emissiveTexture":{
				"index":0
			},
			"name":"Material.001",
			"pbrMetallicRoughness":{
				"baseColorTexture":{
					"index":1
				},
				"metallicFactor":0
			}
		}
	],
	"meshes":[
		{
			"name":"Delorean_Material_0",
			"primitives":[
				{
					"attributes":{
						"POSITION":0,
						"TEXCOORD_0":1,
						"TEXCOORD_1":2,
						"NORMAL":3
					},
					"indices":4,
					"material":0
				}
			]
		}
	],
	"textures":[
		{
			"sampler":0,
			"source":0
		},
		{
			"sampler":0,
			"source":1
		}
	],
	"images":[
		{
			"mimeType":"image/png",
			"name":"Material_emissive",
			"uri":"Material_emissive.png"
		},
		{
			"mimeType":"image/png",
			"name":"Material_baseColor",
			"uri":"Material_baseColor.png"
		}
	],
	"accessors":[
		{
			"bufferView":0,
			"componentType":5126,
			"count":1356,
			"max":[
				1.6494747400283813,
				2.9420552253723145,
				1.2770326137542725
			],
			"min":[
				-1.6494747400283813,
				-2.6725523471832275,
				-0.10732343792915344
			],
			"type":"VEC3"
		},
		{
			"bufferView":1,
			"componentType":5126,
			"count":1356,
			"type":"VEC2"
		},
		{
			"bufferView":2,
			"componentType":5126,
			"count":1356,
			"type":"VEC2"
		},
		{
			"bufferView":3,
			"componentType":5126,
			"count":1356,
			"type":"VEC3"
		},
		{
			"bufferView":4,
			"componentType":5123,
			"count":2094,
			"type":"SCALAR"
		}
	],
	"bufferViews":[
		{
			"buffer":0,
			"byteLength":16272,
			"byteOffset":0,
			"target":34962
		},
		{
			"buffer":0,
			"byteLength":10848,
			"byteOffset":16272,
			"target":34962
		},
		{
			"buffer":0,
			"byteLength":10848,
			"byteOffset":27120,
			"target":34962
		},
		{
			"buffer":0,
			"byteLength":16272,
			"byteOffset":37968,
			"target":34962
		},
		{
			"buffer":0,
			"byteLength":4188,
			"byteOffset":54240,
			"target":34963
		}
	],
	"samplers":[
		{
			"magFilter":9728,
			"minFilter":9984
		}
	],
	"buffers":[
		{
			"byteLength":58428,
			"uri":"new_delorean2.bin"
		}
	]
}
