{
  "accessors": [
    {
      "bufferView": 2,
      "componentType": 5126,
      "count": 1330,
      "max": [
        1.6494747400283813,
        2.9420552253723145,
        1.2770326137542725
      ],
      "min": [
        -1.6494747400283813,
        -2.6725523471832275,
        -0.10732343792915344
      ],
      "type": "VEC3"
    },
    {
      "bufferView": 2,
      "byteOffset": 15960,
      "componentType": 5126,
      "count": 1330,
      "max": [
        0.9998899102210999,
        0.9974734783172607,
        0.9999806880950928
      ],
      "min": [
        -0.9998899102210999,
        -0.9995167255401611,
        -1.0
      ],
      "type": "VEC3"
    },
    {
      "bufferView": 1,
      "componentType": 5126,
      "count": 1330,
      "max": [
        0.966439962387085,
        0.9829865097999573
      ],
      "min": [
        0.007066071033477783,
        0.008992861956357956
      ],
      "type": "VEC2"
    },
    {
      "bufferView": 1,
      "byteOffset": 10640,
      "componentType": 5126,
      "count": 1330,
      "max": [
        0.966439962387085,
        0.9829865097999573
      ],
      "min": [
        0.007066071033477783,
        0.008992861956357956
      ],
      "type": "VEC2"
    },
    {
      "bufferView": 0,
      "componentType": 5125,
      "count": 2094,
      "type": "SCALAR"
    },
    {
      "bufferView": 2,
      "byteOffset": 31920,
      "componentType": 5126,
      "count": 688,
      "max": [
        3.514350652694702,
        4.339425086975098,
        3.0947325229644775
      ],
      "min": [
        -3.514350652694702,
        -5.7976250648498535,
        -0.8758337497711182
      ],
      "type": "VEC3"
    },
    {
      "bufferView": 2,
      "byteOffset": 40176,
      "componentType": 5126,
      "count": 688,
      "max": [
        0.955254077911377,
        0.11040107160806656,
        0.9980353713035583
      ],
      "min": [
        -0.9552540183067322,
        -0.9972001314163208,
        -0.9922065734863281
      ],
      "type": "VEC3"
    },
    {
      "bufferView": 1,
      "byteOffset": 21280,
      "componentType": 5126,
      "count": 688,
      "max": [
        0.809550404548645,
        0.989851713180542
      ],
      "min": [
        0.029991716146469116,
        0.00482487678527832
      ],
      "type": "VEC2"
    },
    {
      "bufferView": 1,
      "byteOffset": 26784,
      "componentType": 5126,
      "count": 688,
      "max": [
        0.809550404548645,
        0.989851713180542
      ],
      "min": [
        0.029991716146469116,
        0.00482487678527832
      ],
      "type": "VEC2"
    },
    {
      "bufferView": 0,
      "byteOffset": 8376,
      "componentType": 5125,
      "count": 1008,
      "type": "SCALAR"
    },
    {
      "bufferView": 2,
      "byteOffset": 48432,
      "componentType": 5126,
      "count": 992,
      "max": [
        10.551549911499023,
        10.551546096801758,
        10.551546096801758
      ],
      "min": [
        -10.551547050476074,
        -10.55155086517334,
        -10.551546096801758
      ],
      "type": "VEC3"
    },
    {
      "bufferView": 2,
      "byteOffset": 60336,
      "componentType": 5126,
      "count": 992,
      "max": [
        0.9762410521507263,
        0.9762411713600159,
        0.9949957728385925
      ],
      "min": [
        -0.9762411117553711,
        -0.9762410521507263,
        -0.9949957132339478
      ],
      "type": "VEC3"
    },
    {
      "bufferView": 1,
      "byteOffset": 32288,
      "componentType": 5126,
      "count": 992,
      "max": [
        0.9683527946472168,
        0.9610127210617065
      ],
      "min": [
        0.016018569469451904,
        0.05220448970794678
      ],
      "type": "VEC2"
    },
    {
      "bufferView": 1,
      "byteOffset": 40224,
      "componentType": 5126,
      "count": 992,
      "max": [
        0.9683527946472168,
        0.9610127210617065
      ],
      "min": [
        0.016018569469451904,
        0.05220448970794678
      ],
      "type": "VEC2"
    },
    {
      "bufferView": 0,
      "byteOffset": 12408,
      "componentType": 5125,
      "count": 1440,
      "type": "SCALAR"
    }
  ],
  "asset": {
    "extras": {
      "author": "Liron (https://sketchfab.com/LironHero)",
      "license": "CC-BY-4.0 (http://creativecommons.org/licenses/by/4.0/)",
      "source": "https://sketchfab.com/3d-models/retro-delorean-391b1ce9e5914e328be9127e77c6d5a0",
      "title": "Retro Delorean"
    },
    "generator": "Sketchfab-12.67.0",
    "version": "2.0"
  },
  "bufferViews": [
    {
      "buffer": 0,
      "byteLength": 18168,
      "name": "floatBufferViews",
      "target": 34963
    },
    {
      "buffer": 0,
      "byteLength": 48160,
      "byteOffset": 18168,
      "byteStride": 8,
      "name": "floatBufferViews",
      "target": 34962
    },
    {
      "buffer": 0,
      "byteLength": 72240,
      "byteOffset": 66328,
      "byteStride": 12,
      "name": "floatBufferViews",
      "target": 34962
    }
  ],
  "buffers": [
    {
      "byteLength": 138568,
      "uri": "scene.bin"
    }
  ],
  "images": [
    {
      "uri": "textures/Material_baseColor.png"
    },
    {
      "uri": "textures/Material_emissive.png"
    },
    {
      "uri": "textures/Shock_baseColor.png"
    },
    {
      "uri": "textures/Shock_emissive.png"
    },
    {
      "uri": "textures/Stars_baseColor.png"
    }
  ],
  "materials": [
    {
      "alphaMode": "BLEND",
      "doubleSided": true,
      "emissiveFactor": [
        1.0,
        1.0,
        1.0
      ],
      "emissiveTexture": {
        "index": 1
      },
      "name": "Material",
      "pbrMetallicRoughness": {
        "baseColorTexture": {
          "index": 0
        },
        "metallicFactor": 0.0
      }
    },
    {
      "alphaMode": "BLEND",
      "emissiveFactor": [
        1.0,
        1.0,
        1.0
      ],
      "emissiveTexture": {
        "index": 3
      },
      "name": "Shock",
      "pbrMetallicRoughness": {
        "baseColorFactor": [
          1.0,
          1.0,
          1.0,
          0.8225334257519654
        ],
        "baseColorTexture": {
          "index": 2
        },
        "metallicFactor": 0.0
      }
    },
    {
      "emissiveFactor": [
        1.0,
        1.0,
        1.0
      ],
      "emissiveTexture": {
        "index": 4
      },
      "name": "Stars",
      "pbrMetallicRoughness": {
        "baseColorTexture": {
          "index": 4
        },
        "metallicFactor": 0.0
      }
    }
  ],
  "meshes": [
    {
      "name": "Delorean_Material_0",
      "primitives": [
        {
          "attributes": {
            "NORMAL": 1,
            "POSITION": 0,
            "TEXCOORD_0": 2,
            "TEXCOORD_1": 3
          },
          "indices": 4,
          "material": 0,
          "mode": 4
        }
      ]
    },
    {
      "name": "Shock_Shock_0",
      "primitives": [
        {
          "attributes": {
            "NORMAL": 6,
            "POSITION": 5,
            "TEXCOORD_0": 7,
            "TEXCOORD_1": 8
          },
          "indices": 9,
          "material": 1,
          "mode": 4
        }
      ]
    },
    {
      "name": "Stars_Stars_0",
      "primitives": [
        {
          "attributes": {
            "NORMAL": 11,
            "POSITION": 10,
            "TEXCOORD_0": 12,
            "TEXCOORD_1": 13
          },
          "indices": 14,
          "material": 2,
          "mode": 4
        }
      ]
    }
  ],
  "nodes": [
    {
      "children": [
        1
      ],
      "matrix": [
        0.002426200546324253,
        0.0,
        0.0,
        0.0,
        0.0,
        5.387247417774639e-19,
        -0.002426200546324253,
        0.0,
        0.0,
        0.002426200546324253,
        5.387247417774639e-19,
        0.0,
        0.0,
        0.0,
        0.0,
        1.0
      ],
      "name": "Sketchfab_model"
    },
    {
      "children": [
        2
      ],
      "matrix": [
        1.0,
        0.0,
        0.0,
        0.0,
        0.0,
        0.0,
        1.0,
        0.0,
        0.0,
        -1.0,
        0.0,
        0.0,
        0.0,
        0.0,
        0.0,
        1.0
      ],
      "name": "f5c2c6925341403fb5dfa71003d79cd1.fbx"
    },
    {
      "children": [
        3,
        5,
        7
      ],
      "name": "RootNode"
    },
    {
      "children": [
        4
      ],
      "matrix": [
        100.0,
        0.0,
        0.0,
        0.0,
        0.0,
        -1.629206793918314e-05,
        -99.99999999999868,
        0.0,
        0.0,
        99.99999999999868,
        -1.629206793918314e-05,
        0.0,
        0.0,
        0.0,
        0.0,
        1.0
      ],
      "name": "Delorean"
    },
    {
      "mesh": 0,
      "name": "Delorean_Material_0"
    },
    {
      "children": [
        6
      ],
      "matrix": [
        100.0,
        0.0,
        0.0,
        0.0,
        0.0,
        -1.629206793918314e-05,
        -99.99999999999868,
        0.0,
        0.0,
        99.99999999999868,
        -1.629206793918314e-05,
        0.0,
        0.0,
        10.117288589477539,
        62.43450164794922,
        1.0
      ],
      "name": "Shock"
    },
    {
      "mesh": 1,
      "name": "Shock_Shock_0"
    },
    {
      "children": [
        8
      ],
      "matrix": [
        100.0,
        0.0,
        0.0,
        0.0,
        0.0,
        -1.629206793918314e-05,
        -99.99999999999868,
        0.0,
        0.0,
        99.99999999999868,
        -1.629206793918314e-05,
        0.0,
        0.0,
        67.19007873535156,
        0.0,
        1.0
      ],
      "name": "Stars"
    },
    {
      "mesh": 2,
      "name": "Stars_Stars_0"
    }
  ],
  "samplers": [
    {
      "magFilter": 9728,
      "minFilter": 9728,
      "wrapS": 10497,
      "wrapT": 10497
    }
  ],
  "scene": 0,
  "scenes": [
    {
      "name": "Sketchfab_Scene",
      "nodes": [
        0
      ]
    }
  ],
  "textures": [
    {
      "sampler": 0,
      "source": 0
    },
    {
      "sampler": 0,
      "source": 1
    },
    {
      "sampler": 0,
      "source": 2
    },
    {
      "sampler": 0,
      "source": 3
    },
    {
      "sampler": 0,
      "source": 4
    }
  ]
}
